# xmcd CD database file
#
# Track frame offsets:
#	150
#	14683
#	25668
#	45096
#	64887
#	78144
#	95535
#	109836
#	123674
#	146768
#	164090
#	177121
#	193838
#	215823
#	236076
#	255683
#
# Disc length: 3517 seconds
#
# Revision: 0
# Processed by: cddbd v1.4PL0 Copyright (c) Steve Scherf et al.
# Submitted via: CDex 1.51
#
DISCID=e60dbb10
DTITLE=Bernard Harris - Basses Covered
DYEAR=2002
DGENRE=Jazz
TTITLE0=Center Stage
TTITLE1=I Want to Thank You
TTITLE2=Basses Covered
TTITLE3=Ten Feet Tall
TTITLE4=Oh Happy Day
TTITLE5=Joy
TTITLE6=Lovin Arms
TTITLE7=Just the Way I Feel
TTITLE8=Convertable
TTITLE9=First Impressions
TTITLE10=Lord Prepare Me
TTITLE11=You Need to Know Jesus
TTITLE12=My Girls
TTITLE13=Let it Go
TTITLE14=Takin a Walk
TTITLE15=I Feel Good
EXTD=YEAR: 2002
EXTT0=
EXTT1=
EXTT2=
EXTT3=
EXTT4=
EXTT5=
EXTT6=
EXTT7=
EXTT8=
EXTT9=
EXTT10=
EXTT11=
EXTT12=
EXTT13=
EXTT14=
EXTT15=
PLAYORDER=
